<?xml version="1.0" encoding="utf-8"?>
<!-- Generator: Adobe Illustrator 18.1.0, SVG Export Plug-In . SVG Version: 6.00 Build 0)  -->
<svg version="1.1" id="Слой_1" xmlns="http://www.w3.org/2000/svg" xmlns:xlink="http://www.w3.org/1999/xlink" x="0px" y="0px"
	 viewBox="0 0 80.1 80.1" enable-background="new 0 0 80.1 80.1" xml:space="preserve">
<g>
	<path fill="#FFFDFD" d="M40,1c21.5,0,39,17.5,39,39s-17.5,39-39,39S1,61.6,1,40S18.5,1,40,1 M40,0C17.9,0,0,17.9,0,40
		s17.9,40,40,40s40-17.9,40-40S62.2,0,40,0L40,0z"/>
</g>
<g id="Слой_3">
	<g>
		<g>
			<path fill="#FFFFFF" d="M30.9,28l1.1,1.7L20.7,37l-1.1-1.7L30.9,28 M31.2,26.7l-13,8.2l2.2,3.4l13-8.2L31.2,26.7L31.2,26.7z"/>
		</g>
	</g>
	<g>
		<g>
			<path fill="#FFFFFF" d="M39.5,41.7l1.1,1.7l-11.3,7.2l-1.1-1.7L39.5,41.7 M39.9,40.3l-13,8.2L29,52l13-8.2L39.9,40.3L39.9,40.3z"
				/>
		</g>
	</g>
	<polygon fill="none" stroke="#FFFFFF" stroke-miterlimit="10" points="22.2,36.8 23.9,39.4 28.2,40.5 27.4,44.9 29,47.5 38,41.9 
		36.3,39.2 31.9,38.2 32.9,33.8 31.2,31.1 	"/>
	<polygon fill="#FCFCFC" points="24.4,37.7 31.1,33.5 31.5,34.2 30.7,37.5 28.3,39 24.8,38.3 	"/>
	<polygon fill="#00D4C8" points="30.2,45.4 29.8,44.6 30.6,40.8 31.2,40.4 35,41.3 35.5,42 	"/>
	
		<rect x="30.3" y="38.7" transform="matrix(0.8454 -0.5341 0.5341 0.8454 -16.0373 22.2833)" fill="#00D4C8" width="0.3" height="0.4"/>
	
		<rect x="29.4" y="39.3" transform="matrix(0.8454 -0.5341 0.5341 0.8454 -16.5 21.8745)" fill="#00D4C8" width="0.3" height="0.4"/>
	
		<rect x="30.2" y="39.5" transform="matrix(0.8454 -0.5341 0.5341 0.8454 -16.5162 22.3409)" fill="#00D4C8" width="0.3" height="0.4"/>
</g>
<g>
	<g>
		<path fill="#FFFFFF" d="M53.9,31.3c1.2,0,2.1,0.9,2.1,2.1l-1.1,7c-0.1,0.7-0.1,1.4-0.1,2.1L56,53.1c0,0.7-0.6,1.1-1.1,1.1
			c-0.2,0-0.5-0.1-0.8-0.4l-4.9-8.1l0-0.1l0,0c-0.6-0.8-1.5-1.2-2.4-1.2s-1.8,0.4-2.4,1.2l0,0l0,0.1l-4.9,8.1
			c-0.3,0.3-0.6,0.4-0.8,0.4c-0.5,0-1.1-0.4-1.1-1.1l1-10.7c0.1-0.7,0-1.4,0-2.1l-0.9-6.7c0-1.3,1.1-2.3,2.4-2.3c0.1,0,0.2,0,0.3,0
			l5.5,0.8c0.5,0.1,1,0.1,1.4,0.1c0.5,0,1,0,1.5-0.1l5.2-0.8C53.7,31.3,53.8,31.3,53.9,31.3 M53.9,30.3c-0.2,0-0.3,0-0.5,0l-5.2,0.8
			c-0.5,0.1-0.9,0.1-1.4,0.1c-0.4,0-0.9,0-1.3-0.1l-5.5-0.8c-0.2,0-0.3,0-0.5,0c-1.8,0-3.4,1.5-3.4,3.4l0.9,6.8
			c0.1,0.6,0.1,1.2,0,1.9l-1,10.8c0,1.3,1,2.1,2.1,2.1c0.6,0,1.2-0.2,1.6-0.8l5-8.2c0.4-0.5,1-0.8,1.6-0.8s1.2,0.3,1.6,0.8l5,8.2
			c0.4,0.6,1,0.8,1.6,0.8c1.1,0,2.1-0.8,2.1-2.1l-1.1-10.7c-0.1-0.6-0.1-1.3,0-1.9l1.1-7.1C57,31.7,55.6,30.3,53.9,30.3L53.9,30.3z"
			/>
	</g>
</g>
<polygon fill="#EB5B5B" points="47.3,29.6 50.9,22 52.6,28.7 59.3,26.3 58,33.4 64.9,33.9 57.8,38.6 "/>
<path fill="#FCFAFA" stroke="#3B3450" stroke-linecap="round" stroke-miterlimit="10" d="M38.8,34.8c0,0,0-2.2,2.1-2.2"/>
</svg>
