<?xml version="1.0" encoding="utf-8"?>
<!-- Generator: Adobe Illustrator 18.1.0, SVG Export Plug-In . SVG Version: 6.00 Build 0)  -->
<svg version="1.1" id="Слой_1" xmlns="http://www.w3.org/2000/svg" xmlns:xlink="http://www.w3.org/1999/xlink" x="0px" y="0px"
	 viewBox="0 0 80.1 80.1" enable-background="new 0 0 80.1 80.1" xml:space="preserve">
<g>
	<path fill="#FFFDFD" d="M40,1c21.5,0,39,17.5,39,39s-17.5,39-39,39S1,61.6,1,40S18.5,1,40,1 M40,0C17.9,0,0,17.9,0,40
		s17.9,40,40,40s40-17.9,40-40S62.2,0,40,0L40,0z"/>
</g>
<g id="Слой_3">
	<path fill="none" stroke="#FFFFFF" stroke-miterlimit="10" d="M31.2,31.1"/>
	<path fill="none" stroke="#FFFFFF" stroke-miterlimit="10" d="M27.4,30.5v-1.8c0-1.1,0.4-2.3,1.3-3c0.7-0.6,1.1-1.6,1-2.7
		c-0.2-1.2-1.1-2.1-2.3-2.3c-1.8-0.3-3.4,1.1-3.4,2.8c0,0.8,0.4,1.6,0.9,2.1c0.8,0.8,1.4,1.8,1.4,2.9v1.8c0,1.1-0.4,2.3-1.3,3
		c-0.7,0.6-1.1,1.6-1,2.7c0.2,1.2,1.1,2.1,2.3,2.3c1.8,0.3,3.4-1.1,3.4-2.8c0-0.8-0.4-1.6-0.9-2.1C27.9,32.6,27.4,31.6,27.4,30.5z"
		/>
	<path fill="none" stroke="#FFFFFF" stroke-miterlimit="10" d="M21.9,34.9h-1.8c-1.1,0-2.3-0.4-3-1.3c-0.6-0.7-1.6-1.1-2.7-1
		c-1.2,0.2-2.1,1.1-2.3,2.3c-0.3,1.8,1.1,3.4,2.8,3.4c0.8,0,1.6-0.4,2.1-0.9c0.8-0.8,1.8-1.4,2.9-1.4h1.8c1.1,0,2.3,0.4,3,1.3
		c0.6,0.7,1.6,1.1,2.7,1c1.2-0.2,2.1-1.1,2.3-2.3c0.3-1.8-1.1-3.4-2.8-3.4c-0.8,0-1.6,0.4-2.1,0.9C24.1,34.3,23.1,34.9,21.9,34.9z"
		/>
	<path fill="none" stroke="#FFFFFF" stroke-miterlimit="10" d="M26,45.2L24.8,44c-0.8-0.8-1.3-1.9-1.2-3.1c0.1-1-0.3-1.9-1.2-2.6
		c-1-0.7-2.3-0.7-3.3,0c-1.5,1.1-1.6,3.2-0.4,4.4c0.6,0.6,1.4,0.9,2.1,0.8c1.1,0,2.2,0.3,3,1.1l1.2,1.2c0.8,0.8,1.3,1.9,1.2,3.1
		c-0.1,1,0.3,1.9,1.2,2.6c1,0.7,2.3,0.7,3.3,0c1.5-1.1,1.6-3.2,0.4-4.4c-0.6-0.6-1.4-0.9-2.1-0.8C27.9,46.3,26.8,46,26,45.2z"/>
	<path fill="none" stroke="#FFFFFF" stroke-miterlimit="10" d="M28.4,54.1l0,1.8c0,1.1-0.5,2.3-1.3,3c-0.7,0.6-1.2,1.6-1,2.6
		c0.2,1.2,1.1,2.2,2.3,2.4c1.8,0.4,3.4-1,3.5-2.8c0-0.8-0.3-1.6-0.9-2.1c-0.8-0.8-1.3-1.8-1.3-2.9l0-1.8c0-1.1,0.5-2.3,1.3-3
		c0.7-0.6,1.2-1.6,1-2.6c-0.2-1.2-1.1-2.2-2.3-2.4c-1.8-0.4-3.4,1-3.5,2.8c0,0.8,0.3,1.6,0.9,2.1C27.9,52,28.4,53,28.4,54.1z"/>
	<path fill="none" stroke="#FFFFFF" stroke-miterlimit="10" d="M39.2,18.5v-1.8c0-1.1,0.4-2.3,1.3-3c0.7-0.6,1.1-1.6,1-2.7
		c-0.2-1.2-1.1-2.1-2.3-2.3c-1.8-0.3-3.4,1.1-3.4,2.8c0,0.8,0.4,1.6,0.9,2.1c0.8,0.8,1.4,1.8,1.4,2.9v1.8c0,1.1-0.4,2.3-1.3,3
		c-0.7,0.6-1.1,1.6-1,2.7c0.2,1.2,1.1,2.1,2.3,2.3c1.8,0.3,3.4-1.1,3.4-2.8c0-0.8-0.4-1.6-0.9-2.1C39.8,20.6,39.2,19.6,39.2,18.5z"
		/>
	<path fill="none" stroke="#FFFFFF" stroke-miterlimit="10" d="M33.8,22.8H32c-1.1,0-2.3-0.4-3-1.3c-0.6-0.7-1.6-1.1-2.7-1
		c-1.2,0.2-2.1,1.1-2.3,2.3c-0.3,1.8,1.1,3.4,2.8,3.4c0.8,0,1.6-0.4,2.1-0.9c0.8-0.8,1.8-1.4,2.9-1.4h1.8c1.1,0,2.3,0.4,3,1.3
		c0.6,0.7,1.6,1.1,2.7,1c1.2-0.2,2.1-1.1,2.3-2.3c0.3-1.8-1.1-3.4-2.8-3.4c-0.8,0-1.6,0.4-2.1,0.9C35.9,22.3,34.9,22.8,33.8,22.8z"
		/>
</g>
<g>
	<g>
		<path fill="#FFFFFF" d="M53.9,31.3c1.2,0,2.1,0.9,2.1,2.1l-1.1,7c-0.1,0.7-0.1,1.4-0.1,2.1L56,53.1c0,0.7-0.6,1.1-1.1,1.1
			c-0.2,0-0.5-0.1-0.8-0.4l-4.9-8.1l0-0.1l0,0c-0.6-0.8-1.5-1.2-2.4-1.2s-1.8,0.4-2.4,1.2l0,0l0,0.1l-4.9,8.1
			c-0.3,0.3-0.6,0.4-0.8,0.4c-0.5,0-1.1-0.4-1.1-1.1l1-10.7c0.1-0.7,0-1.4,0-2.1l-0.9-6.7c0-1.3,1.1-2.3,2.4-2.3c0.1,0,0.2,0,0.3,0
			l5.5,0.8c0.5,0.1,1,0.1,1.4,0.1c0.5,0,1,0,1.5-0.1l5.2-0.8C53.7,31.3,53.8,31.3,53.9,31.3 M53.9,30.3c-0.2,0-0.3,0-0.5,0l-5.2,0.8
			c-0.5,0.1-0.9,0.1-1.4,0.1c-0.4,0-0.9,0-1.3-0.1l-5.5-0.8c-0.2,0-0.3,0-0.5,0c-1.8,0-3.4,1.5-3.4,3.4l0.9,6.8
			c0.1,0.6,0.1,1.2,0,1.9l-1,10.8c0,1.3,1,2.1,2.1,2.1c0.6,0,1.2-0.2,1.6-0.8l5-8.2c0.4-0.5,1-0.8,1.6-0.8s1.2,0.3,1.6,0.8l5,8.2
			c0.4,0.6,1,0.8,1.6,0.8c1.1,0,2.1-0.8,2.1-2.1l-1.1-10.7c-0.1-0.6-0.1-1.3,0-1.9l1.1-7.1C57,31.7,55.6,30.3,53.9,30.3L53.9,30.3z"
			/>
	</g>
</g>
<path fill="none" stroke="#FCFAFA" stroke-linecap="round" stroke-miterlimit="10" d="M38.8,34.8c0,0-0.1-2,2.1-2"/>
<circle fill="#00D4C8" cx="26.8" cy="35.5" r="1.8"/>
<circle fill="#EB5B5B" cx="26.8" cy="23.4" r="1.8"/>
<circle fill="#00D4C8" cx="29" cy="61" r="1.8"/>
</svg>
