<?xml version="1.0" encoding="utf-8"?>
<!-- Generator: Adobe Illustrator 18.1.0, SVG Export Plug-In . SVG Version: 6.00 Build 0)  -->
<svg version="1.1" id="Слой_1" xmlns="http://www.w3.org/2000/svg" xmlns:xlink="http://www.w3.org/1999/xlink" x="0px" y="0px"
	 viewBox="0 0 80.1 80.1" enable-background="new 0 0 80.1 80.1" xml:space="preserve">
<g id="Слой_2">
</g>
<g>
	<circle fill="none" cx="40" cy="40" r="40"/>
</g>
<path fill="none" stroke="#FFFFFF" stroke-width="1.0894" stroke-miterlimit="10" d="M51,39.6H37.5c-0.6,0-1.1-0.5-1.1-1.1v-1.7
	c0-0.6,0.5-1.1,1.1-1.1H51c0.6,0,1.1,0.5,1.1,1.1v1.7C52.2,39.1,51.7,39.6,51,39.6z"/>
<rect x="38" y="39.6" fill="none" stroke="#FFFFFF" stroke-width="1.0894" stroke-miterlimit="10" width="12.5" height="1.5"/>
<path fill="none" stroke="#FFFFFF" stroke-width="1.0894" stroke-miterlimit="10" d="M51.4,57H37.2c-0.8,0-1.5-0.7-1.5-1.5V42.7
	c0-0.8,0.7-1.5,1.5-1.5h14.2c0.8,0,1.5,0.7,1.5,1.5v12.8C52.9,56.3,52.2,57,51.4,57z"/>
<rect x="38" y="45" fill="#00D4C8" width="12.5" height="4"/>
<line fill="none" stroke="#FFFFFF" stroke-width="1.0894" stroke-miterlimit="10" x1="50.1" y1="36.8" x2="50.1" y2="35.9"/>
<line fill="none" stroke="#FFFFFF" stroke-width="1.0894" stroke-miterlimit="10" x1="48.6" y1="36.8" x2="48.6" y2="35.9"/>
<line fill="none" stroke="#FFFFFF" stroke-width="1.0894" stroke-miterlimit="10" x1="38.4" y1="36.8" x2="38.4" y2="35.9"/>
<line fill="none" stroke="#FFFFFF" stroke-width="1.0894" stroke-miterlimit="10" x1="39.8" y1="36.8" x2="39.8" y2="35.9"/>
<g id="Слой_4">
	<path fill="none" stroke="#FFFFFF" stroke-width="1.0894" stroke-miterlimit="10" d="M63.7,52.4l-7.3,5.9c-1.2,1-3.1,0.8-4.1-0.5
		l0,0c-1-1.2-0.8-3.1,0.5-4.1l7.3-5.9c1.2-1,3.1-0.8,4.1,0.5v0C65.1,49.5,64.9,51.4,63.7,52.4z"/>
	<path fill="none" stroke="#FFFFFF" stroke-width="1.0894" stroke-miterlimit="10" d="M60,47.9l-3.7,2.9l3.6,4.5l3.7-2.9
		c1.2-1,1.4-2.8,0.5-4.1C63.1,47.1,61.3,46.9,60,47.9z"/>
	
		<circle fill="#EB5B5B" stroke="#FFFFFF" stroke-width="0.838" stroke-linecap="round" stroke-miterlimit="10" cx="47.8" cy="55.9" r="3.1"/>
	<line fill="none" stroke="#FFFFFF" stroke-width="1.0894" stroke-miterlimit="10" x1="49.8" y1="58.3" x2="45.7" y2="53.5"/>
</g>
<g id="Слой_5">
	<polygon fill="none" stroke="#FFFFFF" stroke-width="1.0894" stroke-miterlimit="10" points="31.5,28.5 31.5,26.5 28.5,26.6 
		28.5,28.5 25.7,29.5 25.7,31.8 27.1,31.8 27.1,45 27.5,45.8 32.3,45.8 32.8,45 32.8,31.8 34.3,31.8 34.3,29.5 	"/>
	<line fill="none" stroke="#FFFFFF" stroke-width="1.0894" stroke-miterlimit="10" x1="30.3" y1="41.7" x2="32.4" y2="41.7"/>
	<line fill="none" stroke="#FFFFFF" stroke-width="1.0894" stroke-miterlimit="10" x1="30.3" y1="38.2" x2="32.4" y2="38.2"/>
	<line fill="none" stroke="#FFFFFF" stroke-width="1.0894" stroke-miterlimit="10" x1="30.2" y1="35.1" x2="32.5" y2="35.1"/>
	<line fill="none" stroke="#FFFFFF" stroke-width="1.0894" stroke-miterlimit="10" x1="30.2" y1="12.2" x2="30.2" y2="26.4"/>
	<polygon fill="#FCFCFC" points="27.5,45.8 27.5,50.2 32.2,50.3 32.1,46.2 	"/>
	<circle fill="none" stroke="#FFFFFF" stroke-width="1.0894" stroke-miterlimit="10" cx="36" cy="48.5" r="4.3"/>
	<circle fill="none" stroke="#3B3450" stroke-width="1.0894" stroke-miterlimit="10" cx="23.5" cy="48.1" r="4.3"/>
	<circle fill="none" stroke="#FFFFFF" stroke-width="1.0894" stroke-miterlimit="10" cx="23.5" cy="48.1" r="4.3"/>
	<path fill="none" stroke="#FFFFFF" stroke-width="1.0894" stroke-miterlimit="10" d="M26.8,58.2c0.1-1.5,1.4-2.6,2.9-2.6
		c1.5,0.1,2.6,1.4,2.6,2.9"/>
	<polygon fill="none" stroke="#FFFFFF" stroke-width="1.0894" stroke-miterlimit="10" points="30.8,53.8 28.8,53.9 28.8,48.9 
		30.6,48.5 	"/>
	<g>
		<path fill="#FCFCFC" d="M40,1.1c21.5,0,39,17.5,39,39S61.5,79,40,79s-39-17.5-39-39S18.6,1.1,40,1.1 M40,0C17.9,0,0,17.9,0,40
			s17.9,40,40,40s40-17.9,40-40S62.2,0,40,0L40,0z"/>
	</g>
</g>
</svg>
