<?xml version="1.0" encoding="utf-8"?>
<!-- Generator: Adobe Illustrator 18.1.0, SVG Export Plug-In . SVG Version: 6.00 Build 0)  -->
<svg version="1.1" id="Слой_1" xmlns="http://www.w3.org/2000/svg" xmlns:xlink="http://www.w3.org/1999/xlink" x="0px" y="0px"
	 viewBox="0 0 80.1 80.1" enable-background="new 0 0 80.1 80.1" xml:space="preserve">
<g>
	<path fill="#FFFDFD" d="M40,1c21.5,0,39,17.5,39,39s-17.5,39-39,39S1,61.6,1,40S18.5,1,40,1 M40,0C17.9,0,0,17.9,0,40
		s17.9,40,40,40s40-17.9,40-40S62.2,0,40,0L40,0z"/>
</g>
<path fill="none" stroke="#FFFFFF" stroke-miterlimit="10" d="M24.6,41.6c0,0,5.6-1.8,6.5-1.8s12.7,3.9,13.5,4.8s0.6,2.5,0.6,2.5
	s6.2-1.7,7.8-1.4c2.8,0.7,5.3,0.2,5.3,2c-0.8,1.5-11.6,7.2-18,7.8c-7.4,0-16.8-6.3-16.8-6.3L24.6,41.6z"/>
<path fill="none" stroke="#FFFFFF" stroke-linecap="round" stroke-miterlimit="10" d="M32,46.4c0,0,5.8,1.8,7.6,1.8s4.8,0.1,5.5-0.9
	"/>
<polygon fill="#00D4C8" points="16.4,37.5 25.8,39.7 23.9,52.3 15.8,52.5 "/>
<polygon fill="none" stroke="#FFFFFF" stroke-linejoin="round" stroke-miterlimit="10" points="34.4,21.5 53.8,21.5 57.3,28.6 
	31.4,28.6 "/>
<g>
	<path fill="#FFFFFF" d="M31.9,39.4V29.1h25V46c0.4,0,0.7,0.1,1,0.3V28.6c0-0.3-0.2-0.5-0.5-0.5h-26c-0.3,0-0.5,0.2-0.5,0.5v10.8
		c0.1,0,0.2,0,0.3,0C31.4,39.3,31.7,39.4,31.9,39.4z"/>
</g>
<polygon fill="#EB5B5B" points="41.5,20.8 39.8,28.2 39.8,35.6 48.5,35.6 48.5,28.6 46.9,20.8 "/>
</svg>
