<?xml version="1.0" encoding="utf-8"?>
<!-- Generator: Adobe Illustrator 18.1.0, SVG Export Plug-In . SVG Version: 6.00 Build 0)  -->
<svg version="1.1" id="Слой_1" xmlns="http://www.w3.org/2000/svg" xmlns:xlink="http://www.w3.org/1999/xlink" x="0px" y="0px"
	 viewBox="0 0 80.1 80.1" enable-background="new 0 0 80.1 80.1" xml:space="preserve">
<path fill-rule="evenodd" clip-rule="evenodd" fill="none" stroke="#FFFFFF" stroke-linecap="round" stroke-linejoin="round" stroke-miterlimit="10" d="
	M42.6,26.3c2.7,2.6,2.8,5.5,2.8,5.5l-0.5,0c0,0-0.2-2.5-2.2-4.1c-1.9-1.6-4.2-1-4.2,2.2c0.1,2.2,1.3,3.2,1.8,3.5l-0.8,0.6
	c-0.6-0.3-2.1-1.5-2.1-4.4C37.4,25.6,39.9,23.7,42.6,26.3z M41.1,35.7c0,0.6,0.7,1.3,1.6,1.3c0.9,0,1.3-0.6,1.3-1.3
	c0-0.6-0.4-1.2-1.3-1.2c-0.4,0-0.5,0-0.5,0l-1.9-1.2l0.7-0.4c1.1-0.7,2.8-0.7,3.8,0.1l3.9,3.1c0.2,0.2,0.4,0.4,0.6,0.6
	c0.9,0.3,1.5,1,1.5,1.7l0,0.8c0,0.7,0,1.4,0,2l-0.1,14.4c0,1.1-1.2,1.9-2.7,1.9l-10.7-0.1c-1.5,0-2.7-0.9-2.7-2l0.1-14.5
	c0-0.7,0-1.5,0-2.3l0-0.4c0-0.6,0.3-1.1,0.9-1.4c0.6-0.6,1.4-1.3,2.3-2l1.7-1.1l1.7,1.4C41.1,35.3,41.1,35.5,41.1,35.7z M32.5,43.8
	L32.4,57c-0.1,1.6,0.3,2.3,2.5,2.4c5.1,0,11.9,0.1,11.9,0.1L43,61c0,0-3,0-8.1-0.1c-4.8,0-4.3-2.8-4.3-3.5c0-0.1,0.1-12.9,0.1-12.9
	l0.5-0.8L32.5,43.8z"/>
<g>
	<path fill="#FFFDFD" d="M40,1c21.5,0,39,17.5,39,39s-17.5,39-39,39S1,61.6,1,40S18.5,1,40,1 M40,0C17.9,0,0,17.9,0,40
		s17.9,40,40,40s40-17.9,40-40S62.2,0,40,0L40,0z"/>
</g>
<path fill="#EB5B5B" d="M50.3,12.2L43.8,16c-0.3-0.4-0.8-0.7-1.3-0.7h-2.4c-0.5,0-0.9,0.2-1.2,0.5l-6.2-3.6
	c-0.6-0.3-1.3,0.1-1.3,0.8l-0.5,3.1c-0.2,1.5-0.2,3.1,0,4.6l0.5,3.1c0,0.7,0.7,1.1,1.3,0.8l6.4-3.7c0.3,0.2,0.6,0.4,1,0.4h2.4
	c0.5,0,0.9-0.2,1.2-0.5l6.6,3.8c0.6,0.3,1.3-0.1,1.3-0.8l0.4-2.7c0.3-1.6,0.3-3.3,0-5L51.6,13C51.6,12.3,50.8,11.9,50.3,12.2z"/>
<text transform="matrix(1 0 0 1 35.8802 51.4346)" fill="#00D4C8" font-family="'Oswald-Medium'" font-size="13.0925">%</text>
</svg>
