<?xml version="1.0" encoding="utf-8"?>
<!-- Generator: Adobe Illustrator 18.1.0, SVG Export Plug-In . SVG Version: 6.00 Build 0)  -->
<svg version="1.1" id="Слой_1" xmlns="http://www.w3.org/2000/svg" xmlns:xlink="http://www.w3.org/1999/xlink" x="0px" y="0px"
	 viewBox="0 0 40 40" enable-background="new 0 0 40 40" xml:space="preserve">
<path fill="#243549" d="M30,31c0,0.6-0.4,1-1,1H6c-0.6,0-1-0.4-1-1V17c0-0.6,0.4-1,1-1h23c0.6,0,1,0.4,1,1V31z M30,14H5
	c-1.1,0-2,0.9-2,2v16c0,1.1,0.9,2,2,2h25c1.1,0,2-0.9,2-2V16C32,14.9,31.1,14,30,14L30,14z M25,30h-3v-3h3V30z"/>
<path fill="#243549" d="M30,21H5v-2h25V21z M30,23H5v2h25V23z"/>
<g>
	<path fill="#25DACF" d="M31.5,17.4l1.2,0.9c-0.1-2.3-0.8-4.5-2.2-6.3c-2.1-2.8-5.3-4.4-8.8-4.4c-2.3,0-4.5,0.7-6.4,2
		c-0.2,0.1-1.1,0.7-2.2,2.4c-0.4,0.6-1.1,1-1.9,1c-0.7,0-1.3-0.3-1.6-0.9c-0.3-0.6-0.3-1.2,0-1.8c1.6-2.8,3.3-3.9,3.5-4
		c2.5-1.8,5.5-2.7,8.6-2.7c4.7,0,9.1,2.2,12,6c2.6,3.5,3.3,8.1,2.8,11.4l2.3,1.6l-11.8,6.7L31.5,17.4z"/>
	<path fill="#FFFFFF" d="M38.1,20.8l-0.5-0.3c0.3-3.3-0.3-7.8-3.1-11.5c-3.1-4.1-7.7-6.4-12.8-6.4c-3.3,0-6.5,1-9.2,2.9
		c-1,0.6-2.5,2.1-3.7,4.3c-0.5,0.9-0.5,1.9,0,2.8c0.5,0.8,1.4,1.4,2.4,1.4h0c1.1,0,2.1-0.5,2.7-1.4c1-1.5,1.9-2,1.9-2.1l0,0l0,0
		c1.7-1.2,3.7-1.9,5.8-1.9c3.1,0,6.1,1.5,8,4c0.3,0.4,0.5,0.8,0.8,1.2c0.1,0,0.2,0,0.3,0c0.7,0.3,1,0.8,1.3,1.5
		c0.1,0.2-0.1-0.4-0.1-0.3c-0.1,0.3-2,3.8-2.1,3.8l-2.8,7.5l-1.9,5.2l4.8-2.7l8-4.5l0.7-0.4c1-0.5,1-1.9,0.1-2.5L38.1,20.8z M29,27
		l3-8l1.6,1.2c0.4-3.1-0.4-6.3-2.3-8.8c-2.4-3.1-5.9-4.8-9.6-4.8c-2.4,0-4.8,0.7-6.9,2.2c-0.4,0.3-1.4,1.1-2.5,2.6
		c-0.2,0.3-0.6,0.5-1,0.5h0c0,0,0,0,0,0c-0.6,0-1-0.6-0.7-1.2c1.2-2.2,2.6-3.3,3.1-3.7c2.5-1.7,5.3-2.6,8.1-2.6
		c4.2,0,8.4,1.9,11.2,5.6c2.6,3.4,3.2,8.1,2.5,11.3l1.5,1L29,27z"/>
</g>
<rect y="0" opacity="0" fill="#201600" width="40" height="40"/>
</svg>
