<?xml version="1.0" encoding="utf-8"?>
<!-- Generator: Adobe Illustrator 18.1.0, SVG Export Plug-In . SVG Version: 6.00 Build 0)  -->
<svg version="1.1" id="Слой_1" xmlns="http://www.w3.org/2000/svg" xmlns:xlink="http://www.w3.org/1999/xlink" x="0px" y="0px"
	 viewBox="0 0 16 18" enable-background="new 0 0 16 18" xml:space="preserve">
<g display="none">
	<g display="inline">
		<path fill-rule="evenodd" clip-rule="evenodd" fill="#2F445C" d="M13.8,1.2c-0.7-0.5-1.2-1.1-3-1.2c-0.2-0.1-1.7,0.2-6.6,6.2
			C3.8,6.8,0.5,11.1,0,13.9c0.1,0.4,0.1,3.5,3.9,4.1c1.7-2,2.3-4.2,2.4-4.2C5.1,12.4,4,12.2,4,12.2l5.8-7.6c0,0,0.5,1.7,1.9,1.9
			C12,6.3,13.7,5.3,15,3.3C15,3.2,14.7,2.1,13.8,1.2z"/>
	</g>
</g>
<path fill-rule="evenodd" clip-rule="evenodd" fill="#FFFFFF" d="M8,1C3.6,1,0,4.6,0,9s3.6,8,8,8c4.4,0,8-3.6,8-8S12.4,1,8,1z
	 M7.9,11.3L3.4,7.1L4,6.5l3.5,2.8L12,3.9l0.6,0.5L7.9,11.3z"/>
</svg>
