<?xml version="1.0" encoding="utf-8"?>
<!-- Generator: Adobe Illustrator 18.1.0, SVG Export Plug-In . SVG Version: 6.00 Build 0)  -->
<svg version="1.1" id="Слой_1" xmlns="http://www.w3.org/2000/svg" xmlns:xlink="http://www.w3.org/1999/xlink" x="0px" y="0px"
	 viewBox="0 0 40 40" enable-background="new 0 0 40 40" xml:space="preserve">
<g>
	<rect y="0" opacity="0" fill="#201600" width="40" height="40"/>
	<path fill="#243549" d="M24,12v18h-9.4c0.2-0.7,0-1.5-0.6-2h8V14c0-1.1-0.9-2-2-2H8c-1.1,0-2,0.9-2,2v12.7C6,27.4,6.6,28,7.3,28H10
		c-0.6,0.5-0.8,1.3-0.6,2H6c-1.1,0-2-0.9-2-2V12c0-1.1,0.9-2,2-2h16C23.1,10,24,10.9,24,12z M30.9,16H22v14h5c-0.2-0.7,0-1.5,0.7-2
		H24V18h5.7c0.6,0,1.3,0.3,1.6,0.8l2.3,3.2c0.2,0.3,0.4,0.7,0.4,1.2V26c0.1,1.6-0.5,2.1-2,2h-1.4c0.8,0.4,1.1,1.2,0.9,2H34
		c1.1,0,2-0.9,2-2v-5.3c0-0.4-0.1-0.8-0.3-1.1l-3.1-4.7C32.2,16.3,31.6,16,30.9,16z M29,28c1.1,0,2,0.9,2,2s-0.9,2-2,2s-2-0.9-2-2
		S27.9,28,29,28 M29,26c-2.2,0-4,1.8-4,4s1.8,4,4,4s4-1.8,4-4S31.2,26,29,26L29,26z"/>
	<path fill="#243549" d="M12,28c1.1,0,2,0.9,2,2s-0.9,2-2,2s-2-0.9-2-2S10.9,28,12,28 M12,26c-2.2,0-4,1.8-4,4s1.8,4,4,4s4-1.8,4-4
		S14.2,26,12,26L12,26z M34,24h-6v-6h2v4h4h0V24z M24,16h-2v14h2V16z"/>
	<g>
		<path fill="#25DACF" d="M16.3,20.7l-1.6-1.6c-0.4-0.4-1-0.4-1.4,0l-1.6,1.6C11.1,21.3,10,20.9,10,20V10h2v7.6l1.3-1.3
			c0.4-0.4,1-0.4,1.4,0l1.3,1.3V10h2v10C18,20.9,16.9,21.3,16.3,20.7z"/>
	</g>
</g>
</svg>
