<?xml version="1.0" encoding="utf-8"?>
<!-- Generator: Adobe Illustrator 18.1.0, SVG Export Plug-In . SVG Version: 6.00 Build 0)  -->
<svg version="1.1" id="Слой_1" xmlns="http://www.w3.org/2000/svg" xmlns:xlink="http://www.w3.org/1999/xlink" x="0px" y="0px"
	 viewBox="0 0 237.1 29" enable-background="new 0 0 237.1 29" xml:space="preserve">
<g id="Слой_4">
	<g>
		<polygon fill="#00D4C8" points="22.6,5.5 11.3,29 0,5.5 11.3,0 		"/>
	</g>
	<g>
		<polygon fill="#E57070" points="35.4,5.5 24.1,29 12.8,5.5 24.1,0 		"/>
	</g>
	<polygon fill="#263C55" points="17.7,15.7 22.6,5.5 17.7,3.1 12.8,5.5 	"/>
	<g>
		<path fill="#263C55" d="M47.7,24.9h-7.4V5.2h7.4C60.6,5.2,60.6,24.8,47.7,24.9z M45.3,20.3h2.4c6.3,0,6.3-10.5,0-10.5h-2.4V20.3z"
			/>
		<path fill="#263C55" d="M73.5,9.7c-2.9,0-4.4,0-7.3,0v2.8h6.7c0,1.5,0,3,0,4.5h-6.7c0,1.2,0,2.3,0,3.5c2.9,0,4.6,0,7.6,0
			c0,1.5,0,3,0,4.5c-4.6,0-8,0-12.6,0c0-6.6,0-13.2,0-19.7c4.6,0,7.7,0,12.3,0C73.5,6.6,73.5,8.2,73.5,9.7z"/>
		<path fill="#263C55" d="M83.3,15.2v9.7c-1.7,0-3.5,0-5.2,0V5.1H80l10,9.8V5.2c1.7,0,3.4,0,5.2,0v19.8h-1.8L83.3,15.2z"/>
		<path fill="#263C55" d="M98.2,9.7c0-1.5,0-3,0-4.5h14.7c0,1.5,0,3,0,4.5H108v15.2c-1.7,0-3.3,0-5,0V9.7H98.2z"/>
		<path fill="#263C55" d="M125.6,19c0-1.4-1.6-1.6-3.6-1.7c-4.3-0.3-7.1-1.8-7.2-6.1c-0.2-8.5,15.2-8.5,15.1,0c-1.8,0-3.1,0-4.8,0
			c0-2.6-5.3-2.4-5.5-0.1c-0.1,1.5,1.4,1.8,3.1,2c3.9,0.4,7.8,0.9,7.8,5.9c0,8.3-16.1,8.5-16-0.2c1.7,0,3.2,0,4.9,0
			C119.5,21.4,125.6,21.3,125.6,19z"/>
		<path fill="#263C55" d="M146.6,9.7c-2.9,0-4.4,0-7.3,0v2.8h6.7c0,1.5,0,3,0,4.5h-6.7c0,1.2,0,2.3,0,3.5c2.9,0,4.6,0,7.6,0
			c0,1.5,0,3,0,4.5c-4.6,0-8,0-12.6,0c0-6.6,0-13.2,0-19.7c4.6,0,7.7,0,12.3,0C146.6,6.6,146.6,8.2,146.6,9.7z"/>
		<path fill="#263C55" d="M167.8,24.2v0.7h-5.6l-3.4-5.8h-2.6v5.8c-1.7,0-3.4,0-5,0c0-6.6,0-13.1,0-19.7c2.8,0,5.8,0,8.7,0
			c7.8,0,9.2,9.4,4.2,12.7L167.8,24.2z M159.8,9.7c-1.2,0-2.4,0-3.6,0c0,1.6,0,3.3,0,4.9h3.6C162.5,14.6,162.7,9.7,159.8,9.7z"/>
		<path fill="#263C55" d="M178.2,16.4h0.1l4.5-11.2h4.9v0.8l-8.4,19.2h-2.1l-8.5-19.2V5.2h4.8L178.2,16.4z"/>
		<path fill="#263C55" d="M199.1,20.5c0,1.7,0,2.7,0,4.4c-3.4,0-6.7,0-10,0c0-1.7,0-2.8,0-4.4h2.5V9.6h-2.3c0-1.7,0-2.7,0-4.4
			c3.2,0,6.4,0,9.6,0c0,1.7,0,2.7,0,4.4h-2.3v10.9H199.1z"/>
		<path fill="#263C55" d="M211.3,4.9c4.1,0,8.5,2.2,9.3,7.5c-1.7,0-3.2,0-5,0c-0.7-2-2.2-2.9-4.3-2.9c-3,0-4.9,2.2-4.9,5.5
			c0,2.9,1.9,5.4,4.9,5.5c2.1,0,3.9-1.1,4.4-3.2c1.7,0,3.2,0,5,0c-0.7,5.6-5.2,7.8-9.4,7.8c-5,0-10.1-3.4-10.1-10.1
			C201.2,8.3,206.3,4.9,211.3,4.9z"/>
		<path fill="#263C55" d="M236.8,9.7c-2.9,0-4.4,0-7.3,0v2.8h6.7c0,1.5,0,3,0,4.5h-6.7c0,1.2,0,2.3,0,3.5c2.9,0,4.6,0,7.6,0
			c0,1.5,0,3,0,4.5c-4.6,0-8,0-12.6,0c0-6.6,0-13.2,0-19.7c4.6,0,7.7,0,12.3,0C236.8,6.6,236.8,8.2,236.8,9.7z"/>
	</g>
</g>
</svg>
