<?xml version="1.0" encoding="utf-8"?>
<!-- Generator: Adobe Illustrator 18.1.0, SVG Export Plug-In . SVG Version: 6.00 Build 0)  -->
<svg version="1.1" id="Слой_1" xmlns="http://www.w3.org/2000/svg" xmlns:xlink="http://www.w3.org/1999/xlink" x="0px" y="0px"
	 viewBox="0 0 20 13" enable-background="new 0 0 20 13" xml:space="preserve">
<path fill-rule="evenodd" clip-rule="evenodd" fill="#FFFFFF" d="M0,11c0,0,0-7.9,0-9c0-1.1,0.8-2,2-2c12.8,0,14.8,0,16,0
	c1.2,0,2,0.8,2,2c0,2.4,0,6.6,0,9c0,1.2-1.9,2-2,2c0,0-14,0-16,0C0.1,13,0,11,0,11z M2,10l4-4L2,3V10z M3,2l7,5c0,0-0.8,0.7,0,0l7-5
	H3z M17,11l-4-4l-3,2L7,7l-4,4H17z M14,6l4,4V3L14,6z"/>
</svg>
