<?xml version="1.0" encoding="utf-8"?>
<!-- Generator: Adobe Illustrator 18.1.0, SVG Export Plug-In . SVG Version: 6.00 Build 0)  -->
<svg version="1.1" id="Слой_1" xmlns="http://www.w3.org/2000/svg" xmlns:xlink="http://www.w3.org/1999/xlink" x="0px" y="0px"
	 viewBox="0 0 40 40" enable-background="new 0 0 40 40" xml:space="preserve">
<g>
	<rect y="0" opacity="0" fill="#201600" width="40" height="40"/>
	<path fill="#243549" d="M26,12 M28,12v18H12V10h14 M28,12l-2-2l0,0l-2-2H12c-1.1,0-2,0.9-2,2v20c0,1.1,0.9,2,2,2h16
		c1.1,0,2-0.9,2-2V14L28,12 M22,16h-8v-2h8V16z M26,20H14v-2h12V20z M26,24H14v-2h12V24z M26,28H14v-2h12V28z"/>
	<polygon fill="#25DACF" points="24,8 24,14 30,14 	"/>
</g>
</svg>
