<?xml version="1.0" encoding="utf-8"?>
<!-- Generator: Adobe Illustrator 18.1.0, SVG Export Plug-In . SVG Version: 6.00 Build 0)  -->
<svg version="1.1" id="Слой_1" xmlns="http://www.w3.org/2000/svg" xmlns:xlink="http://www.w3.org/1999/xlink" x="0px" y="0px"
	 viewBox="0 0 40 40" enable-background="new 0 0 40 40" xml:space="preserve">
<g>
	<path fill="#243549" d="M33,31c0,0.6-0.4,1-1,1H9c-0.6,0-1-0.4-1-1V17c0-0.6,0.4-1,1-1h23c0.6,0,1,0.4,1,1V31z M33,14H8
		c-1.1,0-2,0.9-2,2v16c0,1.1,0.9,2,2,2h25c1.1,0,2-0.9,2-2V16C35,14.9,34.1,14,33,14L33,14z M31,30h-3v-3h3V30z M18.4,15.8
		c0.3-0.2,0.6-0.3,1-0.3c0.1,0,0.3,0,0.4,0l12.4-4.5l-0.7-1.9l-15.5,5.6c0.8,0.1,1.5,0.3,2.2,0.8C18.3,15.7,18.4,15.8,18.4,15.8z
		 M37.9,20.7l-5.5-15c-0.4-1-1.5-1.6-2.6-1.2L6.4,13.1c-1,0.4-1.6,1.5-1.2,2.6l1.3,3.6c0-0.1,0.1-0.2,0.1-0.3
		c0.3-0.6,0.8-1.2,1.3-1.6l-0.5-1.4c-0.2-0.5,0.1-1.1,0.6-1.3l21.6-7.9c0.5-0.2,1.1,0.1,1.3,0.6l0.7,1.9h0l0.7,1.9h0l3.4,9.4
		c0.2,0.5-0.1,1.1-0.6,1.3l-0.9,0.3c0.4,0.7,0.5,1.4,0.2,2l2.2-0.8C37.7,22.9,38.3,21.8,37.9,20.7z"/>
	<path fill="#25DACF" d="M33,21H8v-2h25V21z M33,23H8v2h25V23z"/>
	<rect y="0" opacity="0" fill="#201600" width="40" height="40"/>
</g>
</svg>
