<?xml version="1.0" encoding="utf-8"?>
<!-- Generator: Adobe Illustrator 18.1.0, SVG Export Plug-In . SVG Version: 6.00 Build 0)  -->
<svg version="1.1" id="Слой_1" xmlns="http://www.w3.org/2000/svg" xmlns:xlink="http://www.w3.org/1999/xlink" x="0px" y="0px"
	 viewBox="0 0 16 17" enable-background="new 0 0 16 17" xml:space="preserve">
<path display="none" fill-rule="evenodd" clip-rule="evenodd" fill="#EB5B5B" d="M0,17c0.8-4.5,2.9-7.9,6.2-8.5c0,0,0.6,1.9,1.8,1.8
	c1.6,0,1.8-1.9,1.9-1.8c2.9,0.4,5.3,3.8,6.1,8.5H0z M8,7.6c-2,0-3.7-1.7-3.7-3.8C4.3,1.7,6,0,8,0s3.7,1.7,3.7,3.8
	C11.7,5.9,10.1,7.6,8,7.6z"/>
<path fill-rule="evenodd" clip-rule="evenodd" fill="#FFFFFF" d="M15.5,13c-1.2-1.2-3.6-2.3-4.6-2.7c0.6-0.9,0.9-2,0.9-3.2
	c0-3.3-2.6-5.9-5.9-5.9S0,3.8,0,7.1C0,10.3,2.6,13,5.9,13C7,13,8.1,12.6,9,12.1c0.4,1.1,1.4,3.4,3.5,4.6C15,18.1,17,14.5,15.5,13z
	 M5.9,10.1c-1.7,0-3.1-1.4-3.1-3.1C2.8,5.4,4.2,4,5.9,4c1.7,0,3.1,1.4,3.1,3.1C8.9,8.8,7.6,10.1,5.9,10.1z"/>
</svg>
