<?xml version="1.0" encoding="utf-8"?>
<!-- Generator: Adobe Illustrator 18.1.0, SVG Export Plug-In . SVG Version: 6.00 Build 0)  -->
<svg version="1.1" id="Слой_1" xmlns="http://www.w3.org/2000/svg" xmlns:xlink="http://www.w3.org/1999/xlink" x="0px" y="0px"
	 viewBox="0 0 12 21.5" enable-background="new 0 0 12 21.5" xml:space="preserve">
<g>
	<g>
		<path fill-rule="evenodd" clip-rule="evenodd" fill="#FFFFFF" d="M6,16.5c1,0,6-7.2,6-10.5S9.3,0,6,0S0,2.7,0,6S5.1,16.5,6,16.5z
			 M3,6c0-1.7,1.3-3,3-3s3,1.3,3,3S7.7,9,6,9S3,7.7,3,6z M6,20c-3.3,0-6,0.3-6,0.8s2.7,0.8,6,0.8s6-0.3,6-0.8S9.3,20,6,20z"/>
	</g>
</g>
</svg>
