<?xml version="1.0" encoding="utf-8"?>
<!-- Generator: Adobe Illustrator 18.1.0, SVG Export Plug-In . SVG Version: 6.00 Build 0)  -->
<svg version="1.1" id="Слой_1" xmlns="http://www.w3.org/2000/svg" xmlns:xlink="http://www.w3.org/1999/xlink" x="0px" y="0px"
	 viewBox="0 0 71.8 111.3" enable-background="new 0 0 71.8 111.3" xml:space="preserve">
<g id="Слой_4">
	<g>
		<polygon fill="#00D4C8" points="40.1,31.1 31.5,48.9 22.9,31.1 31.5,26.9 		"/>
	</g>
	<g>
		<polygon fill="#E57070" points="49.8,31.1 41.2,48.9 32.6,31.1 41.2,26.9 		"/>
	</g>
	<polygon fill="#263C55" points="36.3,38.9 40.1,31.1 36.3,29.3 32.6,31.1 	"/>
	<g>
		<g>
			<path fill="#263C55" d="M35.9,97.1c5.9,0,35.9-42.3,35.9-61.8C71.8,15.8,55.7,0,35.9,0C16.1,0,0,15.8,0,35.3
				C0,54.8,30.6,97.1,35.9,97.1z M18,35.3c0-9.7,8-17.6,18-17.6c9.9,0,18,7.9,18,17.6c0,9.7-8,17.6-18,17.6C26,53,18,45.1,18,35.3z
				 M35.4,107.5c-8.4,0-15.2,0.8-15.2,1.9c0,1,6.8,1.9,15.2,1.9c8.4,0,15.2-0.8,15.2-1.9C50.6,108.4,43.8,107.5,35.4,107.5z"/>
		</g>
	</g>
	<text transform="matrix(1 0 0 1 113.185 100.5)" display="none" fill="#263C55" font-family="'Intro'" font-size="47">DentserviCe</text>
	<path id="SVGID_x5F_1_x5F_" fill="none" d="M15.6,35.3c0-11.2,9.1-20.3,20.3-20.3s20.3,9.1,20.3,20.3s-9.1,20.3-20.3,20.3
		S15.6,46.5,15.6,35.3z"/>
	<text>	<textPath  xlink:href="#SVGID_x5F_1_x5F_" startOffset="-11.0352%">
<tspan  fill="#FFFFFF" font-family="'Intro'" font-size="10.2638" letter-spacing="200">dentservice</tspan>	</textPath>
</text>
</g>
</svg>
