<?xml version="1.0" encoding="utf-8"?>
<!-- Generator: Adobe Illustrator 18.1.0, SVG Export Plug-In . SVG Version: 6.00 Build 0)  -->
<svg version="1.1" id="Слой_1" xmlns="http://www.w3.org/2000/svg" xmlns:xlink="http://www.w3.org/1999/xlink" x="0px" y="0px"
	 viewBox="0 0 24.3 15" enable-background="new 0 0 24.3 15" xml:space="preserve">
<path fill-rule="evenodd" clip-rule="evenodd" fill="#EB5B5B" d="M24.2,1c-0.6,1.8-1.9,8-2.1,8c0,0-0.9,1.9-3,2c-0.2,0-0.5,0-1,0
	c0.5,0.5,1,1.5,0.9,2.2c-0.2,1.2-1.3,2-2.4,1.7c-1.1-0.3-1.9-1.4-1.6-2.6c0.1-0.4,0.3-0.8,0.5-1.1c-1.3,0-2.4,0-2.4,0s-0.2,0-0.4,0
	c0.5,0.5,0.7,1.2,0.5,2c-0.2,1.2-1.3,2-2.4,1.7s-1.9-1.4-1.6-2.6c0.1-0.4,0.2-1,1-1.3c-0.9-0.1-2.4-0.2-3-1c-0.4-0.6-1.7-6.4-2-7
	c-0.3-0.7-0.4-0.9-1-1C3.6,1.9,2,2.1,1.2,2c-1.6-0.2-1.5-1.9-0.2-2c0.6,0,3.1,0,3.6,0c1.2,0,2.2,0.7,2.5,1.7S8.2,7,8.2,7s0.3,2,2,2
	c1.2,0,7.8,0,8,0c0.6,0,1.6,0,2,0c0.4-0.8,1-1,1-1s-8.9,0.1-10,0c-1.1-0.1-0.8-2,0-2c0.8,0,10,0,10,0V5c0-0.1-9.6,0-11,0
	c-0.9,0-1-2,0-2c0.6,0,12,0,12,0V2c0,0-11.2,0-12,0c-0.9-0.2-0.7-1.9,0-2c0.7-0.1,10.9,0,11.5,0C23,0.1,24.6-0.2,24.2,1z M11.3,12
	c-0.4-0.1-0.8,0.2-0.9,0.6c-0.1,0.4,0.2,0.9,0.6,0.9c0.4,0.1,0.8-0.2,0.9-0.6C12,12.5,11.7,12.1,11.3,12z M17.2,12
	c-0.4-0.1-0.8,0.2-0.9,0.6c-0.1,0.4,0.2,0.9,0.6,0.9c0.4,0.1,0.8-0.2,0.9-0.6C17.9,12.5,17.6,12.1,17.2,12z"/>
</svg>
