<?xml version="1.0" encoding="utf-8"?>
<!-- Generator: Adobe Illustrator 18.1.0, SVG Export Plug-In . SVG Version: 6.00 Build 0)  -->
<svg version="1.1" id="Слой_1" xmlns="http://www.w3.org/2000/svg" xmlns:xlink="http://www.w3.org/1999/xlink" x="0px" y="0px"
	 viewBox="0 0 40 40" enable-background="new 0 0 40 40" xml:space="preserve">
<g>
	<rect y="0" opacity="0" fill="#201600" width="40" height="40"/>
	<path fill="#25DACF" d="M16.8,23.1L19,22l-1.8,13l-2.9-5.3l-5.4,2.1l5.6-12.3L16.8,23.1z M23,23l-3-0.2l3.1,14.6l3.1-4.7l4.3,1.2
		L23.7,20L23,23z"/>
	<path fill="none" stroke="#243549" stroke-width="2" stroke-miterlimit="10" d="M14.2,7.2L14.2,7.2c1,0.4,2.1-0.2,2.1-1.3l0,0
		c0.1-1.5,2.1-2,2.8-0.7l0,0c0.5,0.9,1.8,1,2.5,0.2l0,0c0.9-1.2,2.8-0.4,2.7,1.1v0c-0.1,1.1,0.9,1.9,1.9,1.6l0,0
		c1.5-0.4,2.5,1.4,1.5,2.5l0,0c-0.7,0.8-0.4,2,0.6,2.4l0,0c1.4,0.5,1.2,2.6-0.2,2.9l0,0c-1,0.2-1.5,1.4-1,2.3l0,0
		c0.8,1.3-0.5,2.8-1.9,2.2l0,0c-1-0.4-2.1,0.2-2.1,1.3v0c-0.1,1.5-2.1,2-2.8,0.7l0,0c-0.5-0.9-1.8-1-2.5-0.2l0,0
		c-0.9,1.2-2.8,0.4-2.7-1.1v0c0.1-1.1-0.9-1.9-1.9-1.6l0,0c-1.5,0.4-2.5-1.4-1.5-2.5l0,0c0.7-0.8,0.4-2-0.6-2.4l0,0
		C9.7,14,9.9,12,11.4,11.7l0,0c1-0.2,1.5-1.4,1-2.3l0,0C11.5,8.1,12.8,6.5,14.2,7.2z"/>
	<circle fill="none" stroke="#243549" stroke-width="2" stroke-miterlimit="10" cx="20" cy="14" r="5"/>
</g>
</svg>
